<svg width="32" height="32" viewBox="0 0 32 32" fill="none" xmlns="http://www.w3.org/2000/svg">
<rect width="32" height="32" rx="12" fill="#690375"/>
<g clip-path="url(#clip0_211_5)">
<path d="M25.3802 11.7833C25.6534 11.9435 25.8679 12.2132 25.946 12.5114C25.9803 12.8072 25.9879 13.09 25.7906 13.3328C25.6477 13.4995 25.4593 13.5899 25.2605 13.6834C25.2339 13.6961 25.2073 13.7087 25.1798 13.7218C25.0856 13.7665 24.9913 13.811 24.897 13.8555C24.821 13.8915 24.745 13.9275 24.669 13.9635C24.454 14.0653 24.2389 14.1668 24.0237 14.2682C23.8908 14.3309 23.7578 14.3937 23.6249 14.4564C23.1539 14.6786 22.682 14.8984 22.2085 15.1156C21.9691 15.2259 21.7319 15.3395 21.4962 15.457C21.413 15.4978 21.3298 15.5386 21.2465 15.5793C21.1913 15.6067 21.1362 15.6344 21.0813 15.6625C20.6762 15.8692 20.3492 15.9706 19.8852 15.9091C19.7705 15.8703 19.7705 15.8703 19.691 15.8344C19.6952 15.8544 19.6995 15.8745 19.7039 15.8951C19.7175 15.9598 19.7307 16.0246 19.7436 16.0895C19.7603 16.1684 19.779 16.2469 19.7998 16.3249C19.9864 17.0977 19.9509 17.9849 19.7298 18.7468C19.721 18.777 19.7123 18.8071 19.7033 18.8383C19.4802 19.5738 19.0992 20.2757 18.6031 20.875C18.587 20.8947 18.5708 20.9143 18.5542 20.9346C17.1785 22.5981 15.1174 23.6215 12.9295 23.864C11.4083 24.0107 9.89019 23.7842 8.54061 23.0779C8.50005 23.0573 8.45948 23.0366 8.41769 23.0154C7.35502 22.4508 6.6059 21.5615 6.13183 20.5016C6.10854 20.4535 6.10854 20.4535 6.08478 20.4043C5.98529 20.1142 6.02016 19.7834 6.15611 19.5122C6.24555 19.3587 6.34327 19.2318 6.48134 19.116C6.57765 18.9417 6.46376 18.6581 6.42276 18.472C6.20602 17.4731 6.20602 17.4731 6.43202 17.1242C6.62951 16.8942 6.84647 16.8035 7.14485 16.7552C7.16954 16.747 7.19423 16.7389 7.21967 16.7305C7.26152 16.6099 7.26361 16.5221 7.26403 16.3952C7.26444 16.3262 7.26444 16.3262 7.26486 16.2558C7.26493 16.2312 7.265 16.2066 7.26507 16.1813C7.26535 16.104 7.26596 16.0268 7.26668 15.9495C7.26871 15.7298 7.27058 15.5101 7.27118 15.2904C7.27158 15.1559 7.27272 15.0215 7.27434 14.887C7.27482 14.836 7.27502 14.785 7.27493 14.734C7.27449 14.391 7.30655 14.1289 7.51515 13.8455C7.76651 13.6099 7.99278 13.5122 8.34636 13.5008C8.66666 13.5101 8.93246 13.5974 9.16224 13.8182C9.43039 14.1548 9.44329 14.4766 9.4342 14.887C9.42709 15.6078 9.50385 16.2888 9.6673 16.9919C9.69234 16.9814 9.71737 16.9708 9.74317 16.96C9.85869 16.9114 9.97425 16.863 10.0898 16.8145C10.1292 16.798 10.1685 16.7814 10.2091 16.7644C10.9138 16.4692 10.9138 16.4692 11.0271 16.4692C11.0216 16.4491 11.0162 16.4291 11.0105 16.4084C10.8214 15.6656 10.9764 14.9526 11.3768 14.3036C11.4726 14.1611 11.5776 14.0256 11.6876 13.8929C11.8306 13.9502 11.9202 14.0341 12.0275 14.1402C12.0586 14.1707 12.0896 14.2013 12.1216 14.2327C12.1451 14.2561 12.1685 14.2795 12.1926 14.3036C12.1291 14.4352 12.0475 14.5514 11.9644 14.6723C11.6423 15.1681 11.6273 15.6393 11.6487 16.2078C11.7037 16.1898 11.7037 16.1898 11.7599 16.1714C13.2669 15.6789 14.7702 15.263 16.3497 15.0503C16.3811 15.046 16.4125 15.0417 16.4449 15.0373C16.7566 15.0011 17.0715 15.0047 17.385 15.004C17.4854 15.0037 17.5857 15.0025 17.686 15.0013C18.0744 14.9989 18.4205 15.0279 18.7974 15.125C18.8605 15.1398 18.9236 15.1546 18.9868 15.1693C19.0268 15.1794 19.0669 15.1894 19.1082 15.1997C19.1059 15.1582 19.1037 15.1167 19.1014 15.074C19.0872 14.705 19.0961 14.4213 19.3587 14.1289C19.6204 13.8902 19.9457 13.7698 20.2713 13.6315C20.3358 13.6036 20.4002 13.5757 20.4646 13.5478C20.5963 13.4907 20.728 13.434 20.8599 13.3774C21.1135 13.2687 21.3661 13.1579 21.6188 13.0472C21.7233 13.0014 21.8278 12.9559 21.9324 12.9103C22.2116 12.7886 22.4904 12.6662 22.7691 12.5432C22.9141 12.4793 23.0591 12.4155 23.2043 12.3521C23.2323 12.3399 23.2602 12.3277 23.289 12.3151C23.3444 12.2909 23.3998 12.2667 23.4551 12.2425C23.6293 12.1663 23.8023 12.0882 23.9751 12.0091C24.8962 11.5928 24.8962 11.5928 25.3802 11.7833ZM24.5601 12.4635C24.5358 12.4743 24.5114 12.4851 24.4863 12.4963C24.4061 12.532 24.3262 12.5683 24.2463 12.6047C24.1894 12.6302 24.1324 12.6556 24.0755 12.6809C23.9561 12.7341 23.8369 12.7875 23.7178 12.8411C23.4584 12.9577 23.1978 13.0718 22.9372 13.186C22.8527 13.223 22.7681 13.2602 22.6836 13.2974C22.1144 13.5477 21.5439 13.7952 20.973 14.0422C21.0143 14.1219 21.0561 14.2012 21.0995 14.2799C21.1914 14.4493 21.2679 14.5952 21.2839 14.789C21.587 14.7044 21.86 14.5741 22.14 14.4367C22.2792 14.3684 22.4189 14.3009 22.5585 14.2333C22.6001 14.2131 22.6001 14.2131 22.6425 14.1925C22.8641 14.0852 23.0871 13.981 23.3114 13.8789C23.3809 13.8471 23.4504 13.8153 23.5199 13.7835C23.5579 13.7661 23.5958 13.7487 23.6349 13.7309C23.9037 13.6077 24.1724 13.4844 24.4406 13.3601C24.5066 13.3296 24.5727 13.2992 24.6388 13.2689C24.7318 13.2263 24.8245 13.1833 24.9172 13.1403C24.9454 13.1275 24.9736 13.1146 25.0027 13.1014C25.1345 13.0397 25.2025 13.0044 25.2855 12.8847C25.3106 12.6718 25.2668 12.5665 25.1301 12.3994C25.086 12.3488 25.086 12.3488 24.9691 12.3533C24.8067 12.3627 24.7068 12.3974 24.5601 12.4635ZM7.9967 14.3036C7.92996 14.4616 7.90915 14.5955 7.90846 14.7654C7.90806 14.8118 7.90766 14.8581 7.90726 14.9059C7.90722 14.9304 7.90718 14.9548 7.90714 14.9801C7.907 15.0573 7.90635 15.1346 7.90556 15.2118C7.90342 15.4313 7.90222 15.6508 7.90127 15.8703C7.90065 16.0049 7.89947 16.1395 7.89797 16.2741C7.89752 16.3252 7.89729 16.3763 7.89729 16.4274C7.89728 16.499 7.89651 16.5705 7.89571 16.6421C7.89541 16.703 7.89541 16.703 7.89511 16.7651C7.8778 16.8978 7.83039 16.9874 7.76359 17.1039C7.75077 17.1409 7.73795 17.1778 7.72474 17.2159C7.65675 17.2556 7.65675 17.2556 7.56933 17.2906C7.54129 17.3029 7.51324 17.3152 7.48434 17.3279C7.35747 17.3713 7.23073 17.3972 7.09887 17.4226C7.02543 17.4335 7.02543 17.4335 6.98656 17.4773C6.87975 18.2531 7.26979 19.178 7.74902 19.7805C8.11827 20.1646 8.60428 20.3726 9.14144 20.4243C9.33419 20.4295 9.52144 20.3968 9.71101 20.3663C9.75463 20.3595 9.79825 20.3528 9.8432 20.3458C10.1486 20.2972 10.4523 20.2414 10.7551 20.1796C10.7932 20.1719 10.8312 20.1642 10.8703 20.1563C10.9227 20.1452 10.9227 20.1452 10.9761 20.1338C11.0067 20.1273 11.0373 20.1208 11.0688 20.1142C11.1518 20.0944 11.1518 20.0944 11.2214 20.0162C11.1664 19.987 11.1664 19.987 11.1103 19.9572C10.0675 19.3884 9.39844 18.4493 9.07241 17.3497C8.83889 16.5071 8.7505 15.6516 8.77997 14.7811C8.78535 14.5441 8.76332 14.3796 8.59161 14.1962C8.36423 14.0899 8.16205 14.126 7.9967 14.3036ZM19.8075 14.6396C19.781 14.7179 19.781 14.7179 19.7687 14.789C19.8159 14.7751 19.8632 14.7612 19.9119 14.747C20.0195 14.7219 20.0799 14.7143 20.1912 14.7306C20.2737 14.789 20.2737 14.789 20.3296 14.9103C20.353 15.0602 20.3364 15.1372 20.2737 15.2744C20.4454 15.2239 20.532 15.1626 20.6234 15.013C20.6525 14.8209 20.6525 14.8209 20.5823 14.6466C20.5136 14.5652 20.4496 14.5001 20.3514 14.4529C20.0916 14.428 19.9867 14.4548 19.8075 14.6396ZM12.3068 16.6535C12.2751 16.6636 12.2435 16.6737 12.2108 16.6841C12.1175 16.7144 12.1175 16.7144 11.9984 16.7679C11.9856 16.8048 11.9727 16.8418 11.9595 16.8799C12.0062 16.9676 12.0062 16.9676 12.0737 17.0549C12.0956 17.0851 12.1176 17.1152 12.1403 17.1463C12.1576 17.1693 12.1748 17.1923 12.1926 17.2159C12.1306 17.2723 12.0682 17.3282 12.0057 17.3839C11.971 17.4151 11.9363 17.4463 11.9005 17.4784C11.8041 17.552 11.8041 17.552 11.6876 17.552C11.6194 17.4837 11.6194 17.4837 11.5492 17.3933C11.5259 17.3638 11.5026 17.3344 11.4786 17.304C11.4233 17.2267 11.3787 17.1516 11.3379 17.0666C11.1789 17.0875 11.0454 17.1215 10.8989 17.184C10.8419 17.208 10.8419 17.208 10.7837 17.2326C10.7447 17.2494 10.7056 17.2663 10.6653 17.2836C10.6267 17.3 10.588 17.3164 10.5482 17.3332C10.4358 17.381 10.3235 17.4291 10.2112 17.4773C10.1435 17.5062 10.0758 17.5351 10.008 17.5641C9.95919 17.5849 9.91038 17.6058 9.86156 17.6266C10.1764 18.4569 10.7449 19.0995 11.5672 19.4946C11.7811 19.5897 12.0044 19.658 12.2315 19.7175C12.2603 19.726 12.2891 19.7344 12.3188 19.7431C12.4613 19.7588 12.5741 19.7214 12.707 19.6776C12.7344 19.6689 12.7618 19.6602 12.79 19.6513C12.88 19.6225 12.9698 19.5931 13.0595 19.5635C13.1057 19.5485 13.1057 19.5485 13.1529 19.5332C13.607 19.3855 14.0553 19.2258 14.4994 19.0525C14.5369 19.0379 14.5369 19.0379 14.5751 19.0231C15.4525 18.6803 15.9456 18.3484 16.357 17.4959C16.468 17.2393 16.5322 16.9758 16.5897 16.7038C16.6575 16.3963 16.7865 16.2065 17.0491 16.0211C17.3006 15.9019 17.6148 15.9029 17.8836 15.9708C18.1103 16.069 18.2656 16.2402 18.3821 16.4482C18.4187 16.5791 18.4334 16.7076 18.4477 16.8425C18.7046 16.65 18.957 16.404 19.0135 16.0841C19.0061 15.9511 19.0061 15.9511 18.9387 15.8917C17.314 14.8282 13.9851 16.1068 12.3068 16.6535ZM17.2433 16.6558C17.2073 16.7344 17.2073 16.7344 17.1911 16.8239C17.1836 16.8568 17.1761 16.8898 17.1684 16.9237C17.1611 16.9585 17.1538 16.9934 17.1462 17.0292C17.0875 17.2886 17.0239 17.5353 16.917 17.7811C16.8835 17.853 16.8835 17.853 16.9325 17.9253C17.0405 17.8604 17.148 17.7949 17.2555 17.7293C17.286 17.711 17.3165 17.6926 17.348 17.6737C17.3774 17.6557 17.4068 17.6376 17.4371 17.619C17.4642 17.6026 17.4912 17.5862 17.5191 17.5693C17.6977 17.4371 17.7535 17.2754 17.7872 17.0666C17.8141 16.8198 17.8141 16.8198 17.7241 16.5952C17.5387 16.492 17.3961 16.5201 17.2433 16.6558ZM19.1859 17.0292C19.1522 17.0685 19.1192 17.1083 19.0863 17.1482C17.0363 19.4135 12.8998 20.4393 9.93629 20.937C9.86963 20.9483 9.80304 20.96 9.73647 20.9717C8.90854 21.1143 8.05734 21.0722 7.21967 21.0617C7.33666 21.2648 7.45926 21.4274 7.62518 21.5961C7.64909 21.6205 7.673 21.6448 7.69764 21.67C8.61332 22.584 9.89105 23.0698 11.1825 23.2273C11.2367 23.2346 11.2367 23.2346 11.2919 23.242C13.2228 23.4598 15.2605 22.832 16.7871 21.7047C16.9271 21.5957 17.061 21.4816 17.1932 21.364C17.2712 21.2954 17.3511 21.2311 17.4327 21.1667C18.355 20.3871 18.9403 19.2516 19.1859 18.112C19.1936 18.078 19.2014 18.044 19.2094 18.0089C19.2332 17.821 19.2287 17.6337 19.2272 17.4446C19.2269 17.3847 19.2269 17.3847 19.2266 17.3235C19.2262 17.2254 19.2255 17.1273 19.2247 17.0292C19.2119 17.0292 19.1991 17.0292 19.1859 17.0292ZM6.83116 19.6802C6.72923 19.8475 6.67428 19.9718 6.7146 20.1656C6.9 20.3366 7.15813 20.4213 7.4115 20.4316C7.43794 20.4301 7.46438 20.4285 7.49163 20.427C7.45877 20.3915 7.42592 20.3561 7.39207 20.3196C7.21284 20.1191 7.06122 19.8998 6.90886 19.6802C6.88322 19.6802 6.85757 19.6802 6.83116 19.6802Z" fill="white"/>
<path d="M9.29577 10.5885C9.52208 10.7199 9.70545 10.9241 9.78384 11.1672C9.81512 11.4598 9.82754 11.7504 9.62844 11.9886C9.44178 12.177 9.27249 12.31 8.99634 12.3372C8.66548 12.3407 8.43664 12.3291 8.1923 12.1055C7.94436 11.8477 7.90031 11.6451 7.90714 11.2959C7.93415 11.0023 8.07623 10.848 8.3037 10.6611C8.57816 10.4794 8.99102 10.4587 9.29577 10.5885ZM8.64258 11.2279C8.56053 11.3431 8.55568 11.4035 8.57945 11.5406C8.63773 11.6339 8.63773 11.6339 8.73486 11.6899C8.87751 11.7128 8.94031 11.7081 9.06024 11.6293C9.14229 11.514 9.14715 11.4537 9.12337 11.3166C9.06509 11.2232 9.06509 11.2232 8.96796 11.1672C8.82531 11.1444 8.76251 11.149 8.64258 11.2279Z" fill="white"/>
<path d="M11.4714 8.49757C11.6977 8.62899 11.8811 8.83322 11.9595 9.0763C11.9908 9.36888 12.0032 9.65948 11.8041 9.89773C11.6174 10.0861 11.4481 10.219 11.172 10.2463C10.8411 10.2498 10.6123 10.2382 10.368 10.0146C10.12 9.75678 10.076 9.55416 10.0828 9.20494C10.1098 8.91139 10.2519 8.75708 10.4794 8.5702C10.7538 8.38846 11.1667 8.36778 11.4714 8.49757ZM10.8182 9.13697C10.7362 9.25223 10.7313 9.31258 10.7551 9.44968C10.8134 9.54302 10.8134 9.54302 10.9105 9.59903C11.0532 9.62188 11.116 9.61721 11.2359 9.53835C11.318 9.4231 11.3228 9.36274 11.299 9.22565C11.2408 9.13231 11.2408 9.13231 11.1436 9.0763C11.001 9.05345 10.9382 9.05811 10.8182 9.13697Z" fill="white"/>
<path d="M12.3092 10.3084C12.4522 10.3658 12.5418 10.4496 12.6491 10.5558C12.6802 10.5863 12.7112 10.6168 12.7432 10.6483C12.7666 10.6717 12.7901 10.6951 12.8142 10.7192C12.7578 10.8405 12.6861 10.9293 12.5957 11.0295C12.262 11.4274 12.0847 11.8215 11.9984 12.3247C11.7804 12.3247 11.5624 12.3247 11.3379 12.3247C11.2821 11.6281 11.702 11.005 12.1538 10.4951C12.2057 10.433 12.2576 10.3708 12.3092 10.3084Z" fill="white"/>
<path d="M8.85136 18.8588C8.89995 18.9522 8.94579 19.047 8.98734 19.1435C9.09994 19.3619 9.29096 19.515 9.47298 19.6802C9.53791 19.7422 9.60272 19.8044 9.66724 19.8669C9.61934 19.942 9.57062 20.0165 9.52154 20.0909C9.4945 20.1325 9.46746 20.1741 9.43959 20.2169C9.41215 20.2493 9.3847 20.2816 9.35643 20.3149C9.08723 20.3149 8.91275 20.1095 8.72631 19.936C8.42462 19.6271 8.24263 19.3236 8.22974 18.8961C8.53744 18.8776 8.53744 18.8776 8.85136 18.8588Z" fill="white"/>
<path d="M11.6487 18C11.8538 18 12.059 18 12.2703 18C12.2703 18.1971 12.2703 18.3943 12.2703 18.5974C12.0652 18.5974 11.86 18.5974 11.6487 18.5974C11.6487 18.4003 11.6487 18.2031 11.6487 18Z" fill="white"/>
<path d="M9.78381 15.3117C9.98895 15.3117 10.1941 15.3117 10.4054 15.3117C10.4054 15.5088 10.4054 15.706 10.4054 15.9091C10.2003 15.9091 9.99516 15.9091 9.78381 15.9091C9.78381 15.712 9.78381 15.5148 9.78381 15.3117Z" fill="white"/>
<path d="M10.0946 12.6234C10.2997 12.6234 10.5049 12.6234 10.7162 12.6234C10.7162 12.8205 10.7162 13.0177 10.7162 13.2208C10.5111 13.2208 10.306 13.2208 10.0946 13.2208C10.0946 13.0236 10.0946 12.8265 10.0946 12.6234Z" fill="white"/>
<path d="M6.67566 12.3247C6.88079 12.3247 7.08593 12.3247 7.29728 12.3247C7.29728 12.5218 7.29728 12.719 7.29728 12.9221C7.09215 12.9221 6.88701 12.9221 6.67566 12.9221C6.67566 12.7249 6.67566 12.5278 6.67566 12.3247Z" fill="white"/>
</g>
<defs>
<clipPath id="clip0_211_5">
<rect width="19.8919" height="19.1169" fill="white" transform="translate(6.05408 6.64935)"/>
</clipPath>
</defs>
</svg>
